<?xml version="1.0" encoding="utf-8"?>
<!-- Generator: Adobe Illustrator 19.0.0, SVG Export Plug-In . SVG Version: 6.00 Build 0)  -->
<svg version="1.1" id="Layer_1" xmlns="http://www.w3.org/2000/svg" xmlns:xlink="http://www.w3.org/1999/xlink" x="0px" y="0px"
	 viewBox="0 0 96 96" style="enable-background:new 0 0 96 96;" xml:space="preserve">
<style type="text/css">
	.st0{fill:#2A5F9E;}
	.st1{fill:#ED4C5C;}
	.st2{fill:#FFFFFF;}
</style>
<g id="XMLID_2_">
	<path id="XMLID_4_" class="st0" d="M48,15.5c-11.2,0-20.9,5.5-26.8,14.1h53.5C68.9,21,59.2,15.5,48,15.5z"/>
	<path id="XMLID_5_" class="st0" d="M48,80.5c11.2,0,20.9-5.5,26.8-14.1H21.2C27.1,75,36.8,80.5,48,80.5z"/>
	<path id="XMLID_6_" class="st1" d="M77.3,33.9H18.8c-2.1,4.2-3.3,9-3.3,14.1c0,5.1,1.2,9.9,3.3,14.1h58.5c2.1-4.2,3.3-9,3.3-14.1
		C80.5,42.9,79.3,38.1,77.3,33.9"/>
	<path id="XMLID_7_" class="st2" d="M18.8,62.1c0.8,1.5,1.6,2.9,2.5,4.3h53.5c1-1.4,1.8-2.8,2.5-4.3H18.8"/>
	<path id="XMLID_8_" class="st2" d="M77.3,33.9c-0.8-1.5-1.6-2.9-2.5-4.3H21.2c-1,1.4-1.8,2.8-2.5,4.3H77.3"/>
	<circle id="XMLID_9_" class="st2" cx="32.8" cy="48" r="11.9"/>
	<polygon id="XMLID_10_" class="st1" points="32.8,52.2 38.1,56.3 36.2,49.7 41.5,45.6 34.9,45.6 32.8,39 30.8,45.6 24.2,45.6 
		29.5,49.7 27.5,56.3 	"/>
</g>
</svg>
